<svg width="305.528" height="66.301" viewBox="0 0 305.528 66.301" xmlns="http://www.w3.org/2000/svg"><g id="svgGroup" stroke-linecap="round" fill-rule="evenodd" font-size="9pt" stroke="#000" stroke-width="0.25mm" fill="none" style="stroke:#000;stroke-width:0.25mm;fill:none"><path d="M 235.571 62.1 A 39.087 39.087 0 0 0 238.636 61.728 Q 241.625 61.235 243.413 60.328 A 6.255 6.255 0 0 0 244.971 59.25 A 3.848 3.848 0 0 0 246.173 56.393 Q 246.173 55.261 245.629 53.901 A 11.883 11.883 0 0 0 245.171 52.9 A 6.644 6.644 0 0 0 244.432 51.708 Q 243.546 50.547 241.971 49.3 Q 239.571 47.4 236.471 45.25 Q 233.371 43.1 230.371 40.7 A 34.234 34.234 0 0 1 226.724 37.34 A 29.241 29.241 0 0 1 225.221 35.6 A 13.249 13.249 0 0 1 223.259 32.276 A 11.599 11.599 0 0 1 222.571 29.8 Q 222.404 28.74 222.404 27.738 A 10.414 10.414 0 0 1 223.521 22.95 A 9.623 9.623 0 0 1 226.264 19.697 Q 227.417 18.803 228.921 18.1 A 17.213 17.213 0 0 1 232.167 16.989 Q 233.857 16.581 235.862 16.382 A 39.968 39.968 0 0 1 239.171 16.2 Q 245.571 16.1 254.771 18.3 L 254.971 18.4 A 0.909 0.909 0 0 1 255.134 18.506 Q 255.208 18.566 255.282 18.646 A 1.934 1.934 0 0 1 255.371 18.75 Q 255.571 19 255.721 19.3 A 0.864 0.864 0 0 1 255.811 19.663 Q 255.816 19.822 255.771 20 A 2.135 2.135 0 0 1 255.673 20.301 Q 255.606 20.463 255.516 20.59 A 1.231 1.231 0 0 1 255.471 20.65 Q 255.271 20.9 254.971 21 A 2.608 2.608 0 0 1 254.793 21.053 Q 254.609 21.1 254.471 21.1 L 254.271 21.1 L 252.771 20.9 Q 251.429 20.721 249.287 20.542 A 148.024 148.024 0 0 0 248.771 20.5 Q 246.271 20.3 243.371 20.2 A 55.935 55.935 0 0 0 241.443 20.167 A 54.584 54.584 0 0 0 237.621 20.3 A 31.822 31.822 0 0 0 234.924 20.6 A 23.391 23.391 0 0 0 232.521 21.1 A 9.091 9.091 0 0 0 231.11 21.596 Q 229.893 22.147 229.171 23 A 9.517 9.517 0 0 0 227.942 24.701 A 7.087 7.087 0 0 0 227.121 27 Q 226.846 28.651 227.343 30.395 A 9.846 9.846 0 0 0 227.671 31.35 A 11.455 11.455 0 0 0 228.848 33.53 Q 229.489 34.473 230.358 35.415 A 20.433 20.433 0 0 0 230.771 35.85 Q 232.971 38.1 236.471 40.2 A 60.282 60.282 0 0 1 241.389 43.472 A 46.156 46.156 0 0 1 245.071 46.5 Q 248.054 49.235 249.527 52.038 A 13.792 13.792 0 0 1 250.071 53.2 A 8.769 8.769 0 0 1 250.723 55.883 Q 250.883 57.973 249.971 60.1 A 5.5 5.5 0 0 1 248.525 62.053 Q 247.89 62.615 247.039 63.088 A 11.505 11.505 0 0 1 246.221 63.5 Q 243.549 64.719 239.911 65.147 A 30.596 30.596 0 0 1 239.421 65.2 Q 235.471 65.6 231.071 64.95 Q 226.671 64.3 222.421 62.45 Q 218.171 60.6 214.971 57.3 L 214.921 57.2 A 0.784 0.784 0 0 1 214.891 57.132 Q 214.865 57.062 214.838 56.964 A 3.112 3.112 0 0 1 214.821 56.9 Q 214.771 56.7 214.821 56.5 A 0.945 0.945 0 0 1 214.867 56.366 Q 214.934 56.207 215.071 56 Q 215.313 55.759 215.554 55.647 A 1.123 1.123 0 0 1 215.671 55.6 A 1.367 1.367 0 0 1 215.866 55.55 Q 215.96 55.534 216.049 55.534 A 0.876 0.876 0 0 1 216.221 55.55 Q 216.471 55.6 216.671 55.65 L 216.871 55.7 L 218.421 56.75 A 27.91 27.91 0 0 0 219.497 57.441 Q 220.799 58.238 222.621 59.2 Q 225.271 60.6 228.621 61.5 Q 231.971 62.4 235.571 62.1 Z M 277.171 64.4 Q 274.471 63 272.371 61 Q 270.271 59 268.771 56.55 A 26.129 26.129 0 0 1 266.664 52.239 A 29.767 29.767 0 0 1 266.271 51.15 Q 265.271 48.2 264.671 44.8 A 56.744 56.744 0 0 1 263.841 35.598 Q 263.827 34.238 263.871 32.85 Q 264.071 26.6 265.071 20.2 L 265.171 19.95 Q 265.271 19.7 265.521 19.4 A 1.409 1.409 0 0 1 265.788 19.157 Q 265.925 19.059 266.099 18.976 A 2.832 2.832 0 0 1 266.271 18.9 Q 266.771 18.7 267.571 18.8 Q 268.271 18.9 268.721 19.3 Q 269.171 19.7 269.371 20.05 Q 269.571 20.4 269.671 20.7 L 269.771 21 Q 268.571 31.5 268.871 39.55 Q 269.066 44.79 270.194 48.526 A 18.135 18.135 0 0 0 271.671 52.1 Q 273.243 55.158 275.007 57.223 A 17.776 17.776 0 0 0 275.521 57.8 A 15.27 15.27 0 0 0 277.42 59.537 A 11.046 11.046 0 0 0 279.821 60.95 Q 282.071 61.9 284.471 61.8 A 11.597 11.597 0 0 0 287.664 61.195 A 14.661 14.661 0 0 0 289.371 60.5 A 26.144 26.144 0 0 0 293.007 58.075 A 19.402 19.402 0 0 0 296.171 54.9 Q 298.671 51.7 299.821 47.8 Q 300.971 43.9 300.871 39.5 A 61.156 61.156 0 0 0 300.405 34.543 A 76.181 76.181 0 0 0 299.871 31.15 Q 299.071 26.7 298.221 23.1 Q 297.438 19.785 297.037 18.251 A 53.152 53.152 0 0 0 296.971 18 L 296.971 17.85 A 1.213 1.213 0 0 1 296.976 17.747 Q 296.987 17.622 297.021 17.45 Q 297.069 17.211 297.254 16.972 A 1.717 1.717 0 0 1 297.271 16.95 Q 297.471 16.7 297.971 16.6 Q 298.489 16.452 298.87 16.551 A 1.06 1.06 0 0 1 299.121 16.65 A 3.559 3.559 0 0 1 299.378 16.807 Q 299.625 16.973 299.762 17.139 A 1.067 1.067 0 0 1 299.771 17.15 L 299.971 17.4 A 36.348 36.348 0 0 1 302.249 22.506 A 42.783 42.783 0 0 1 302.971 24.7 A 76.424 76.424 0 0 1 304.765 32.007 A 84.855 84.855 0 0 1 304.971 33.1 A 52.382 52.382 0 0 1 305.443 37.517 Q 305.528 38.881 305.528 40.178 A 36.405 36.405 0 0 1 305.421 43 A 36.754 36.754 0 0 1 304.756 47.731 A 29.025 29.025 0 0 1 303.821 51.15 Q 302.571 54.8 300.471 57.8 Q 298.571 60.2 296.021 62.05 Q 293.471 63.9 290.421 64.85 Q 287.371 65.8 284.021 65.75 Q 280.671 65.7 277.171 64.4 Z M 27.371 66.3 Q 21.071 66.3 15.921 64 Q 10.771 61.7 7.071 57.55 Q 3.371 53.4 1.521 47.75 A 30.921 30.921 0 0 1 0.095 40.345 Q 0 39.037 0 37.682 A 40.554 40.554 0 0 1 0.071 35.3 Q 0.371 28.5 2.921 22.2 Q 5.471 15.9 9.721 10.9 Q 13.971 5.9 19.471 2.95 Q 24.971 0 31.271 0 Q 36.271 0 41.421 1.15 Q 46.571 2.3 51.221 4.8 Q 55.871 7.3 59.421 11.35 Q 62.971 15.4 64.871 21.15 A 30.29 30.29 0 0 1 66.135 26.872 Q 66.441 29.297 66.441 31.981 A 50.502 50.502 0 0 1 66.371 34.6 A 31.271 31.271 0 0 1 65.341 41.362 A 25.819 25.819 0 0 1 63.571 46.05 Q 61.071 51.1 57.021 54.9 Q 52.971 58.7 47.971 61.25 Q 42.971 63.8 37.671 65.05 Q 32.371 66.3 27.371 66.3 Z M 28.471 61.7 A 36.088 36.088 0 0 0 36.527 60.765 A 40.307 40.307 0 0 0 37.221 60.6 Q 41.671 59.5 45.771 57.25 Q 49.871 55 53.171 51.55 A 28.008 28.008 0 0 0 58.457 43.644 A 31.427 31.427 0 0 0 58.521 43.5 A 26.966 26.966 0 0 0 60.458 36.946 A 33.905 33.905 0 0 0 60.871 33.1 Q 61.342 25.657 59.327 20.432 A 19.733 19.733 0 0 0 59.071 19.8 A 23.151 23.151 0 0 0 55.898 14.406 A 19.768 19.768 0 0 0 52.621 11.15 Q 48.471 7.9 43.271 6.45 Q 38.071 5 32.671 5 Q 27.271 5 22.521 7.4 A 28.612 28.612 0 0 0 14.256 13.74 A 32.416 32.416 0 0 0 14.021 14 Q 10.271 18.2 8.071 23.7 Q 5.871 29.2 5.571 35.4 Q 5.362 39.738 6.013 43.42 A 24.779 24.779 0 0 0 7.921 49.6 Q 10.671 55.5 15.971 58.6 Q 21.271 61.7 28.471 61.7 Z M 117.371 40.1 L 117.671 35 A 56.619 56.619 0 0 0 126.456 33.709 A 50.714 50.714 0 0 0 128.471 33.2 Q 133.571 31.8 137.971 29.1 A 29.628 29.628 0 0 0 145.45 22.5 A 33.554 33.554 0 0 0 145.771 22.1 L 145.971 21.85 Q 146.171 21.6 146.571 21.35 A 3.549 3.549 0 0 1 147.227 21.032 A 4.176 4.176 0 0 1 147.471 20.95 A 1.211 1.211 0 0 1 147.78 20.901 Q 148.11 20.89 148.51 21.036 A 3.187 3.187 0 0 1 148.671 21.1 Q 149.235 21.382 149.446 21.841 A 1.295 1.295 0 0 1 149.471 21.9 Q 149.671 22.4 149.621 22.95 A 8.117 8.117 0 0 1 149.57 23.388 Q 149.529 23.669 149.471 23.9 L 149.371 24.3 Q 147.471 27.5 144.621 30 A 31.926 31.926 0 0 1 139.462 33.667 A 36.488 36.488 0 0 1 138.121 34.4 Q 134.471 36.3 130.171 37.6 A 83.91 83.91 0 0 1 123.44 39.325 A 95.195 95.195 0 0 1 121.071 39.8 L 120.571 37.9 Q 125.171 39.4 129.221 41.6 Q 133.271 43.8 136.871 46.65 Q 140.471 49.5 143.671 52.95 Q 146.871 56.4 149.771 60.3 L 149.871 60.6 Q 149.971 60.9 149.971 61.35 Q 149.971 61.8 149.721 62.2 Q 149.471 62.6 148.871 62.9 Q 148.271 63.2 147.621 63.1 Q 146.971 63 146.521 62.65 A 41.107 41.107 0 0 1 146.205 62.402 Q 146.082 62.304 145.973 62.216 A 19.529 19.529 0 0 1 145.771 62.05 L 145.471 61.8 Q 142.771 58.5 139.971 55.7 A 89.37 89.37 0 0 0 135.421 51.447 A 79.281 79.281 0 0 0 134.371 50.55 A 70.47 70.47 0 0 0 129.821 47.029 A 62.81 62.81 0 0 0 128.771 46.3 Q 125.971 44.4 123.121 42.85 Q 120.271 41.3 117.371 40.1 Z M 173.159 64.615 A 22.42 22.42 0 0 0 178.371 65.2 Q 183.271 65.2 187.721 63.25 Q 192.171 61.3 195.671 57.9 Q 199.171 54.5 201.171 50.05 Q 203.171 45.6 203.171 40.6 Q 203.171 32 200.271 26.45 A 22.771 22.771 0 0 0 199.512 25.108 A 18.293 18.293 0 0 0 192.271 18.25 A 22.675 22.675 0 0 0 187.182 16.348 A 27.335 27.335 0 0 0 180.671 15.6 Q 175.771 15.6 171.471 17.7 Q 167.171 19.8 163.921 23.4 Q 160.671 27 158.821 31.65 Q 156.971 36.3 156.971 41.3 A 32.312 32.312 0 0 0 157.011 42.923 A 27.879 27.879 0 0 0 158.471 50.65 Q 159.971 55 162.771 58.25 Q 165.571 61.5 169.521 63.35 A 18.866 18.866 0 0 0 173.159 64.615 Z M 90.791 65.467 A 3.223 3.223 0 0 0 91.271 65.5 A 3.117 3.117 0 0 0 91.392 65.498 Q 92.011 65.474 92.421 65.2 A 3.035 3.035 0 0 0 92.537 65.119 Q 92.703 64.997 92.829 64.867 A 1.588 1.588 0 0 0 93.071 64.55 A 2.906 2.906 0 0 0 93.122 64.457 Q 93.195 64.318 93.243 64.187 A 1.585 1.585 0 0 0 93.321 63.9 L 93.371 63.6 A 275.852 275.852 0 0 1 93.289 62.194 Q 93.043 57.814 92.871 52.4 Q 92.671 46.1 92.621 39.2 Q 92.571 32.3 92.671 25.55 Q 92.771 18.8 92.971 12.95 A 223.767 223.767 0 0 1 93.116 9.475 Q 93.296 5.85 93.571 3.1 L 93.521 2.75 Q 93.471 2.4 93.271 1.9 A 1.964 1.964 0 0 0 93.147 1.645 A 2.059 2.059 0 0 0 92.621 1.05 Q 92.319 0.815 91.858 0.738 A 2.952 2.952 0 0 0 91.371 0.7 Q 90.896 0.7 90.527 0.788 A 2.114 2.114 0 0 0 90.071 0.95 Q 89.868 1.052 89.714 1.178 A 1.296 1.296 0 0 0 89.371 1.6 Q 89.234 1.875 89.167 2.079 A 1.51 1.51 0 0 0 89.121 2.25 L 89.071 2.5 A 240.055 240.055 0 0 0 88.961 3.906 Q 88.629 8.286 88.371 13.7 Q 88.071 20 87.921 26.9 Q 87.771 33.8 87.871 40.65 Q 87.971 47.5 88.221 53.5 A 285.448 285.448 0 0 0 88.392 57.084 Q 88.596 60.844 88.871 63.8 L 88.971 64.05 A 1.045 1.045 0 0 0 88.987 64.088 Q 89.093 64.326 89.371 64.65 A 2.46 2.46 0 0 0 89.617 64.899 A 2.886 2.886 0 0 0 90.121 65.25 Q 90.406 65.409 90.791 65.467 Z M 116.416 65.456 A 3.288 3.288 0 0 0 116.971 65.5 A 2.921 2.921 0 0 0 117.206 65.491 Q 117.437 65.473 117.63 65.416 A 1.375 1.375 0 0 0 118.071 65.2 Q 118.259 65.06 118.402 64.908 A 1.874 1.874 0 0 0 118.671 64.55 A 2.906 2.906 0 0 0 118.722 64.457 Q 118.795 64.318 118.843 64.187 A 1.585 1.585 0 0 0 118.921 63.9 L 118.971 63.6 A 217.311 217.311 0 0 1 118.89 62.194 Q 118.772 60.044 118.681 57.645 A 373.143 373.143 0 0 1 118.521 52.4 A 720.197 720.197 0 0 1 118.452 49.213 A 826.12 826.12 0 0 1 118.321 39.2 Q 118.271 32.3 118.321 25.55 Q 118.371 18.8 118.571 12.95 A 223.767 223.767 0 0 1 118.716 9.475 Q 118.896 5.85 119.171 3.1 L 119.121 2.75 Q 119.071 2.4 118.871 1.9 A 1.964 1.964 0 0 0 118.747 1.645 A 2.059 2.059 0 0 0 118.221 1.05 Q 117.919 0.815 117.458 0.738 A 2.952 2.952 0 0 0 116.971 0.7 Q 116.496 0.7 116.127 0.788 A 2.114 2.114 0 0 0 115.671 0.95 Q 115.468 1.052 115.314 1.178 A 1.296 1.296 0 0 0 114.971 1.6 Q 114.834 1.875 114.767 2.079 A 1.51 1.51 0 0 0 114.721 2.25 L 114.671 2.5 A 240.055 240.055 0 0 0 114.561 3.906 Q 114.229 8.286 113.971 13.7 Q 113.671 20 113.571 26.9 A 633.327 633.327 0 0 0 113.504 36.078 A 626.405 626.405 0 0 0 113.521 40.65 Q 113.571 47.5 113.821 53.5 A 285.448 285.448 0 0 0 113.992 57.084 Q 114.196 60.844 114.471 63.8 L 114.621 64.05 Q 114.734 64.238 114.902 64.482 A 14.053 14.053 0 0 0 115.021 64.65 A 1.465 1.465 0 0 0 115.098 64.748 Q 115.231 64.905 115.419 65.04 A 2.582 2.582 0 0 0 115.771 65.25 A 2.017 2.017 0 0 0 115.826 65.277 Q 116.094 65.401 116.416 65.456 Z M 178.571 60.9 Q 182.471 60.9 186.121 59.2 Q 189.771 57.5 192.571 54.6 Q 195.371 51.7 197.021 47.9 Q 198.671 44.1 198.671 39.9 Q 198.671 32.8 196.321 28.2 Q 193.971 23.6 189.921 21.4 A 18.024 18.024 0 0 0 183.762 19.415 A 22.993 22.993 0 0 0 180.571 19.2 Q 176.671 19.2 173.171 21.15 Q 169.671 23.1 167.071 26.4 Q 164.471 29.7 162.971 33.75 Q 161.471 37.8 161.471 42 A 24.62 24.62 0 0 0 162.046 47.429 A 19.905 19.905 0 0 0 163.571 51.8 A 16.301 16.301 0 0 0 167.546 57.046 A 15.689 15.689 0 0 0 169.521 58.5 A 15.766 15.766 0 0 0 175.753 60.71 A 20.311 20.311 0 0 0 178.571 60.9 Z M 203.221 65.05 A 1.772 1.772 0 0 0 203.345 65.143 Q 203.869 65.5 204.671 65.5 A 2.921 2.921 0 0 0 204.906 65.491 Q 205.137 65.473 205.33 65.416 A 1.375 1.375 0 0 0 205.771 65.2 Q 205.959 65.06 206.102 64.908 A 1.874 1.874 0 0 0 206.371 64.55 A 2.906 2.906 0 0 0 206.422 64.457 Q 206.495 64.318 206.543 64.187 A 1.585 1.585 0 0 0 206.621 63.9 L 206.671 63.6 Q 206.371 57.5 206.171 51.55 Q 205.971 45.6 205.921 39.9 Q 205.871 34.2 206.121 28.8 A 356.254 356.254 0 0 1 206.137 28.463 A 328.006 328.006 0 0 1 206.771 18.3 L 206.721 17.95 Q 206.671 17.6 206.471 17.1 A 1.964 1.964 0 0 0 206.347 16.845 A 2.059 2.059 0 0 0 205.821 16.25 Q 205.519 16.015 205.058 15.938 A 2.952 2.952 0 0 0 204.571 15.9 A 5.212 5.212 0 0 0 204.488 15.901 Q 203.873 15.911 203.453 16.067 A 1.491 1.491 0 0 0 202.971 16.35 Q 202.689 16.604 202.535 16.857 A 1.294 1.294 0 0 0 202.371 17.25 L 202.271 17.7 Q 201.571 25.8 201.271 33.65 A 221.526 221.526 0 0 0 201.107 42.11 A 206.831 206.831 0 0 0 201.221 49 Q 201.471 56.5 202.171 63.8 L 202.421 64.2 Q 202.671 64.6 203.221 65.05 Z M 104.571 21.7 Q 96.671 21.7 89.571 21.6 Q 82.471 21.5 76.871 21.4 L 76.521 21.35 A 2.528 2.528 0 0 1 76.25 21.295 Q 76.121 21.262 75.976 21.213 A 5.804 5.804 0 0 1 75.671 21.1 A 2.6 2.6 0 0 1 75.055 20.754 A 2.328 2.328 0 0 1 74.821 20.55 A 1.164 1.164 0 0 1 74.505 19.951 A 1.708 1.708 0 0 1 74.471 19.6 A 2.717 2.717 0 0 1 74.488 19.287 Q 74.522 19 74.621 18.8 Q 74.762 18.518 74.991 18.413 A 0.647 0.647 0 0 1 75.021 18.4 Q 75.227 18.318 75.365 18.269 A 3.781 3.781 0 0 1 75.421 18.25 L 75.571 18.2 Q 76.313 18.015 78.256 17.958 A 49.644 49.644 0 0 1 78.571 17.95 Q 80.771 17.9 83.821 17.85 Q 86.871 17.8 90.421 17.75 Q 93.971 17.7 97.571 17.7 L 104.371 17.7 L 104.571 17.8 L 105.071 18.05 A 4.033 4.033 0 0 1 105.363 18.213 Q 105.492 18.291 105.629 18.386 A 6.753 6.753 0 0 1 105.721 18.45 A 1.922 1.922 0 0 1 106.173 18.897 A 1.796 1.796 0 0 1 106.271 19.05 A 1.466 1.466 0 0 1 106.433 19.492 Q 106.471 19.682 106.471 19.9 A 1.984 1.984 0 0 1 106.422 20.355 A 1.45 1.45 0 0 1 106.171 20.9 A 2.18 2.18 0 0 1 105.939 21.165 Q 105.74 21.357 105.521 21.45 Q 105.171 21.6 104.871 21.65 L 104.571 21.7 Z" vector-effect="non-scaling-stroke"/></g></svg>
